<svg width="44" height="51" viewBox="0 0 44 51" fill="none" xmlns="http://www.w3.org/2000/svg">
<g filter="url(#filter0_f_381_2729)">
<ellipse cx="21.9999" cy="46.4285" rx="5.99989" ry="2.14282" fill="black" fill-opacity="0.2"/>
</g>
<g filter="url(#filter1_d_381_2729)">
<path fill-rule="evenodd" clip-rule="evenodd" d="M22 4C31.9411 4 40 12.0589 40 22C40 29.6222 35.2624 36.1378 28.5711 38.7629L23.0252 46.3434C22.9096 46.5021 22.7561 46.6316 22.5777 46.721C22.3992 46.8105 22.2011 46.8571 22 46.8571C21.7989 46.8571 21.6008 46.8105 21.4223 46.721C21.2439 46.6316 21.0904 46.5021 20.9748 46.3434L15.4289 38.7629C8.73765 36.1378 4 29.6222 4 22C4 12.0589 12.0589 4 22 4Z" fill="black"/>
</g>
<path d="M36.572 21.9999C36.572 13.9524 30.0483 7.42871 22.0009 7.42871C13.9534 7.42871 7.42969 13.9524 7.42969 21.9999C7.42969 30.0473 13.9534 36.5711 22.0009 36.5711C30.0483 36.5711 36.572 30.0473 36.572 21.9999Z" fill="black"/>
<g clip-path="url(#clip0_381_2729)">
<path d="M20.107 22.3284H17.379V24.5944H21.185V25.6064H12.33V24.5944H16.092V22.3284H13.474V17.7524H20.052V18.7754H14.761V21.3054H20.107V22.3284ZM27.4576 21.8554C27.1789 22.2954 26.9662 22.6254 26.8196 22.8454C26.4089 22.7207 25.9909 22.497 25.5656 22.1744C25.1402 21.8517 24.8359 21.496 24.6526 21.1074C24.4766 21.54 24.1722 21.9434 23.7396 22.3174C23.3069 22.6914 22.8449 22.9554 22.3536 23.1094C22.1996 22.8894 21.9612 22.5594 21.6386 22.1194C22.9732 21.6867 23.7359 20.9534 23.9266 19.9194H22.0566V18.9074H27.2266V19.9194H25.3566C25.5546 20.8654 26.2549 21.5107 27.4576 21.8554ZM23.0576 23.5054H29.5146V26.8494H28.2276V24.5284H23.0576V23.5054ZM30.9116 20.6344H29.5036V23.0434H28.2276V17.0374H29.5036V19.5784H30.9116V20.6344ZM23.2226 18.3574V17.3564H26.0716V18.3574H23.2226Z" fill="white"/>
</g>
<defs>
<filter id="filter0_f_381_2729" x="15.0319" y="43.3175" width="13.9363" height="6.22192" filterUnits="userSpaceOnUse" color-interpolation-filters="sRGB">
<feFlood flood-opacity="0" result="BackgroundImageFix"/>
<feBlend mode="normal" in="SourceGraphic" in2="BackgroundImageFix" result="shape"/>
<feGaussianBlur stdDeviation="0.484068" result="effect1_foregroundBlur_381_2729"/>
</filter>
<filter id="filter1_d_381_2729" x="0" y="0" width="44" height="50.8572" filterUnits="userSpaceOnUse" color-interpolation-filters="sRGB">
<feFlood flood-opacity="0" result="BackgroundImageFix"/>
<feColorMatrix in="SourceAlpha" type="matrix" values="0 0 0 0 0 0 0 0 0 0 0 0 0 0 0 0 0 0 127 0" result="hardAlpha"/>
<feOffset/>
<feGaussianBlur stdDeviation="2"/>
<feComposite in2="hardAlpha" operator="out"/>
<feColorMatrix type="matrix" values="0 0 0 0 0 0 0 0 0 0 0 0 0 0 0 0 0 0 0.4 0"/>
<feBlend mode="normal" in2="BackgroundImageFix" result="effect1_dropShadow_381_2729"/>
<feBlend mode="normal" in="SourceGraphic" in2="effect1_dropShadow_381_2729" result="shape"/>
</filter>
<clipPath id="clip0_381_2729">
<rect width="18" height="10" fill="white" transform="translate(13 17)"/>
</clipPath>
</defs>
</svg>
