<svg width="52" height="61" viewBox="0 0 52 61" fill="none" xmlns="http://www.w3.org/2000/svg">
<g filter="url(#filter0_f_381_1476)">
<ellipse cx="26.0002" cy="55.857" rx="7.3332" ry="2.619" fill="black" fill-opacity="0.2"/>
</g>
<g filter="url(#filter1_d_381_1476)">
<path fill-rule="evenodd" clip-rule="evenodd" d="M26 4C38.1503 4 48 13.8497 48 26C48 35.316 42.2095 43.2796 34.0314 46.4879L27.2531 55.7531C27.1117 55.947 26.9241 56.1053 26.706 56.2146C26.4879 56.3239 26.2458 56.381 26 56.381C25.7542 56.381 25.5121 56.3239 25.294 56.2146C25.0759 56.1053 24.8883 55.947 24.7469 55.7531L17.9686 46.4879C9.79046 43.2796 4 35.316 4 26C4 13.8497 13.8497 4 26 4Z" fill="white"/>
</g>
<path d="M43.8098 25.9998C43.8098 16.164 35.8364 8.19055 26.0006 8.19055C16.1649 8.19055 8.19141 16.164 8.19141 25.9998C8.19141 35.8355 16.1649 43.809 26.0006 43.809C35.8364 43.809 43.8098 35.8355 43.8098 25.9998Z" fill="#FF375F"/>
<circle cx="26.625" cy="25.625" r="6.375" stroke="white" stroke-width="2"/>
<path d="M22.0703 30.1785L31.1223 21.1267" stroke="white" stroke-width="2"/>
<defs>
<filter id="filter0_f_381_1476" x="17.6989" y="52.2699" width="16.6023" height="7.17431" filterUnits="userSpaceOnUse" color-interpolation-filters="sRGB">
<feFlood flood-opacity="0" result="BackgroundImageFix"/>
<feBlend mode="normal" in="SourceGraphic" in2="BackgroundImageFix" result="shape"/>
<feGaussianBlur stdDeviation="0.484068" result="effect1_foregroundBlur_381_1476"/>
</filter>
<filter id="filter1_d_381_1476" x="0" y="0" width="52" height="60.381" filterUnits="userSpaceOnUse" color-interpolation-filters="sRGB">
<feFlood flood-opacity="0" result="BackgroundImageFix"/>
<feColorMatrix in="SourceAlpha" type="matrix" values="0 0 0 0 0 0 0 0 0 0 0 0 0 0 0 0 0 0 127 0" result="hardAlpha"/>
<feOffset/>
<feGaussianBlur stdDeviation="2"/>
<feComposite in2="hardAlpha" operator="out"/>
<feColorMatrix type="matrix" values="0 0 0 0 0 0 0 0 0 0 0 0 0 0 0 0 0 0 0.15 0"/>
<feBlend mode="normal" in2="BackgroundImageFix" result="effect1_dropShadow_381_1476"/>
<feBlend mode="normal" in="SourceGraphic" in2="effect1_dropShadow_381_1476" result="shape"/>
</filter>
</defs>
</svg>
